{
  "accessors": [
    {
      "bufferView": 2,
      "componentType": 5126,
      "count": 9294,
      "max": [
        6.726069927215576,
        13.489947319030762,
        13.214980125427246
      ],
      "min": [
        -16.52731704711914,
        -2.094395160675049,
        -12.898968696594238
      ],
      "type": "VEC3"
    },
    {
      "bufferView": 2,
      "byteOffset": 111528,
      "componentType": 5126,
      "count": 9294,
      "max": [
        1.0,
        1.0,
        1.0
      ],
      "min": [
        -1.0,
        -1.0,
        -1.0
      ],
      "type": "VEC3"
    },
    {
      "bufferView": 3,
      "componentType": 5126,
      "count": 9294,
      "max": [
        1.0,
        1.0,
        1.0,
        1.0
      ],
      "min": [
        -0.9904436469078064,
        -1.0,
        -0.9978718757629395,
        1.0
      ],
      "type": "VEC4"
    },
    {
      "bufferView": 1,
      "componentType": 5126,
      "count": 9294,
      "max": [
        0.9940236806869507,
        0.9852914810180664
      ],
      "min": [
        0.008935689926147461,
        0.008516550064086914
      ],
      "type": "VEC2"
    },
    {
      "bufferView": 0,
      "componentType": 5125,
      "count": 27234,
      "type": "SCALAR"
    }
  ],
  "asset": {
    "extras": {
      "author": "SuppIns (https://sketchfab.com/SuppIns)",
      "license": "CC-BY-4.0 (http://creativecommons.org/licenses/by/4.0/)",
      "source": "https://sketchfab.com/3d-models/jasperio-village-cmgt-3d-modelling-treehouse-a869b93f1bec45da9adcc2d7cd2dc3db",
      "title": "Jasperio Village - CMGT 3d modelling - Treehouse"
    },
    "generator": "Sketchfab-12.66.0",
    "version": "2.0"
  },
  "bufferViews": [
    {
      "buffer": 0,
      "byteLength": 108936,
      "name": "floatBufferViews",
      "target": 34963
    },
    {
      "buffer": 0,
      "byteLength": 74352,
      "byteOffset": 108936,
      "byteStride": 8,
      "name": "floatBufferViews",
      "target": 34962
    },
    {
      "buffer": 0,
      "byteLength": 223056,
      "byteOffset": 183288,
      "byteStride": 12,
      "name": "floatBufferViews",
      "target": 34962
    },
    {
      "buffer": 0,
      "byteLength": 148704,
      "byteOffset": 406344,
      "byteStride": 16,
      "name": "floatBufferViews",
      "target": 34962
    }
  ],
  "buffers": [
    {
      "byteLength": 555048,
      "uri": "scene.bin"
    }
  ],
  "images": [
    {
      "uri": "textures/Serabert_baseColor.png"
    },
    {
      "uri": "textures/Serabert_metallicRoughness.png"
    },
    {
      "uri": "textures/Serabert_normal.png"
    }
  ],
  "materials": [
    {
      "doubleSided": true,
      "name": "Serabert",
      "normalTexture": {
        "index": 2
      },
      "pbrMetallicRoughness": {
        "baseColorTexture": {
          "index": 0
        },
        "metallicRoughnessTexture": {
          "index": 1
        }
      }
    }
  ],
  "meshes": [
    {
      "name": "Paploo_Village_Serabert_0",
      "primitives": [
        {
          "attributes": {
            "NORMAL": 1,
            "POSITION": 0,
            "TANGENT": 2,
            "TEXCOORD_0": 3
          },
          "indices": 4,
          "material": 0,
          "mode": 4
        }
      ]
    }
  ],
  "nodes": [
    {
      "children": [
        1
      ],
      "matrix": [
        2.220446049250313e-16,
        -5.551115123125783e-16,
        1.0,
        0.0,
        0.9999920129776001,
        0.004001212771981955,
        -2.2115615721585559e-16,
        0.0,
        -0.004001212771981955,
        0.9999920129776001,
        5.559771005753334e-16,
        0.0,
        -4.719827175140381,
        0.0006777119124296996,
        5.058578968048096,
        1.0
      ],
      "name": "Sketchfab_model"
    },
    {
      "children": [
        2
      ],
      "matrix": [
        1.0,
        0.0,
        0.0,
        0.0,
        0.0,
        0.0,
        1.0,
        0.0,
        0.0,
        -1.0,
        0.0,
        0.0,
        0.0,
        0.0,
        0.0,
        1.0
      ],
      "name": "37c4fe2f292a4e6eb8909c30c18cc1f6.fbx"
    },
    {
      "children": [
        3
      ],
      "name": "RootNode"
    },
    {
      "children": [
        4
      ],
      "name": "Paploo_Village"
    },
    {
      "mesh": 0,
      "name": "Paploo_Village_Serabert_0"
    }
  ],
  "samplers": [
    {
      "magFilter": 9729,
      "minFilter": 9987,
      "wrapS": 10497,
      "wrapT": 10497
    }
  ],
  "scene": 0,
  "scenes": [
    {
      "name": "Sketchfab_Scene",
      "nodes": [
        0
      ]
    }
  ],
  "textures": [
    {
      "sampler": 0,
      "source": 0
    },
    {
      "sampler": 0,
      "source": 1
    },
    {
      "sampler": 0,
      "source": 2
    }
  ]
}
